<svg xmlns="http://www.w3.org/2000/svg" width="34.734" height="34.733" viewBox="0 0 34.734 34.733">
  <g id="Group_174" data-name="Group 174" transform="translate(-653.762 -7935.892)">
    <rect id="Rectangle_225" data-name="Rectangle 225" width="33.734" height="33.734" rx="12" transform="translate(654.262 7936.392)" fill="none" stroke="#fab702" stroke-width="1"/>
    <path id="Icon_awesome-globe" data-name="Icon awesome-globe" d="M10.057,5.106C9.624,2.437,8.6.563,7.412.563S5.2,2.437,4.767,5.106ZM4.543,7.975a18.734,18.734,0,0,0,.1,1.913H10.18a18.734,18.734,0,0,0,.1-1.913,18.734,18.734,0,0,0-.1-1.913H4.642A18.734,18.734,0,0,0,4.543,7.975Zm9.7-2.869A7.428,7.428,0,0,0,9.525.873,10.088,10.088,0,0,1,11.02,5.106ZM5.3.873A7.423,7.423,0,0,0,.577,5.106H3.8A10.047,10.047,0,0,1,5.3.873Zm9.271,5.189H11.139c.063.628.1,1.27.1,1.913s-.036,1.285-.1,1.913h3.425a7.348,7.348,0,0,0,.257-1.913A7.477,7.477,0,0,0,14.568,6.062ZM3.587,7.975c0-.643.036-1.285.1-1.913H.257a7.246,7.246,0,0,0,0,3.826H3.682C3.622,9.26,3.587,8.617,3.587,7.975Zm1.181,2.869c.433,2.669,1.456,4.543,2.645,4.543s2.212-1.874,2.645-4.543Zm4.761,4.232a7.435,7.435,0,0,0,4.722-4.232H11.023A10.088,10.088,0,0,1,9.528,15.076ZM.577,10.844A7.428,7.428,0,0,0,5.3,15.076,10.088,10.088,0,0,1,3.8,10.844H.577Z" transform="translate(664.042 7945.283)" fill="#fab702"/>
  </g>
</svg>
