<svg xmlns="http://www.w3.org/2000/svg" width="34.734" height="34.733" viewBox="0 0 34.734 34.733">
  <g id="Group_176" data-name="Group 176" transform="translate(-653.762 -7834.691)">
    <rect id="Rectangle_223" data-name="Rectangle 223" width="33.734" height="33.734" rx="12" transform="translate(654.262 7835.191)" fill="none" stroke="#fab702" stroke-width="1"/>
    <path id="Icon_awesome-phone-alt" data-name="Icon awesome-phone-alt" d="M13.315,9.685l-3-1.285a.642.642,0,0,0-.75.185L8.239,10.207A9.922,9.922,0,0,1,3.5,5.464L5.118,4.136a.641.641,0,0,0,.185-.75l-1.285-3A.647.647,0,0,0,3.282.017L.5.659a.642.642,0,0,0-.5.626A12.419,12.419,0,0,0,12.421,13.706a.642.642,0,0,0,.626-.5l.642-2.784a.65.65,0,0,0-.375-.739Z" transform="translate(663.881 7845.205)" fill="#fab702"/>
  </g>
</svg>
