<svg xmlns="http://www.w3.org/2000/svg" width="34.734" height="34.733" viewBox="0 0 34.734 34.733">
  <g id="Group_177" data-name="Group 177" transform="translate(-653.762 -7784.091)">
    <rect id="Rectangle_222" data-name="Rectangle 222" width="33.734" height="33.734" rx="12" transform="translate(654.262 7784.591)" fill="none" stroke="#fab702" stroke-width="1"/>
    <path id="Icon_awesome-address-book" data-name="Icon awesome-address-book" d="M12.569,4.612a.347.347,0,0,0,.346-.346V3.113a.347.347,0,0,0-.346-.346h-.577V1.384A1.384,1.384,0,0,0,10.608,0H1.384A1.384,1.384,0,0,0,0,1.384V13.376A1.384,1.384,0,0,0,1.384,14.76h9.225a1.384,1.384,0,0,0,1.384-1.384V11.992h.577a.347.347,0,0,0,.346-.346V10.493a.347.347,0,0,0-.346-.346h-.577V8.3h.577a.347.347,0,0,0,.346-.346V6.8a.347.347,0,0,0-.346-.346h-.577V4.612ZM6,3.69A1.845,1.845,0,1,1,4.151,5.535,1.847,1.847,0,0,1,6,3.69Zm3.229,6.826a.6.6,0,0,1-.646.553H3.413a.6.6,0,0,1-.646-.553V9.963A1.815,1.815,0,0,1,4.7,8.3h.144a2.969,2.969,0,0,0,2.295,0h.144a1.815,1.815,0,0,1,1.937,1.66Z" transform="translate(664.672 7794.078)" fill="#fab702"/>
  </g>
</svg>
