<svg width="128" height="33" viewBox="0 0 128 33" fill="none" xmlns="http://www.w3.org/2000/svg">
    <g clip-path="url(#wwdnxcbxqa)">
        <path d="M108.683 11.072c.786-.732 2.26-1.322 4.96-1.443 5.335-.248 6.161-.527 8.104-1.533 1.729-.893 3.574-2.64 4.196-4.432-.982.6-2.152 1.039-3.365 1.361-2.84.75-5.988.879-7.796.879-.4 0-.732-.006-.984-.013-2.181-.066-3.152-.217-5.448-.217-.354 0-.743.004-1.173.013-2.099.038-3.544 1.343-4.134 1.997-.054.06-.097.11-.137.157.746.86 1.585 1.604 2.138 2.13.417.402 1.527 1.25 2.85 2.353.1-.325.318-.81.792-1.25l-.003-.002z" fill="#B39759"/>
        <path d="M107.162 5.206a69.97 69.97 0 0 1 1.183-.013c2.324 0 3.308.153 5.463.217.246.007.574.013.969.013 1.785 0 4.903-.13 7.672-.862 2.824-.658 4.84-2.109 5.548-4.061-2.289 2.279-8.236 2.392-11.655 2.14-3.55-.259-9.829-1.392-10.95-1.484-.655-.039-1.455-.065-2.206.278-.753.347-1.432 1.074-1.772 2.113-.096.3-.139.595-.139.89-.013 1.047.571 2.093 1.316 3.026.565-.658 2.142-2.204 4.569-2.258l.002.001z" fill="#B39759"/>
        <path d="M107.723 27.045c0-.807-.2-1.557-.486-2.103-1.316-2.538-4.055-5.087-6.458-7.744-2.421-2.71-7.178-6.806-7.212-10.845 0-.53.15-1.007.368-1.501-.87.977-3.877 4.876-2.092 10.377.64 1.972 2.784 4.585 5.046 7.852 2.178 3.147 2.674 7.218 2.556 9.42 6.775-.302 8.256-3.084 8.278-5.454v-.002z" fill="#A6A8AB"/>
        <path d="M121.969 8.51c-1.981 1.036-2.987 1.35-8.304 1.588-4.359.212-5.11 2.094-5.277 2.636.552.47 1.128.976 1.701 1.509 1.012.949 2.037 1.917 2.891 2.916-.007-2.6 1.998-2.93 2.469-3.214.617-.372 1.9-.58 4.654-2.154 2.947-1.684 3.596-3.994 3.726-4.658a7.912 7.912 0 0 1-1.859 1.378h-.001z" fill="#B39759"/>
        <path d="M109.616 14.746c-2.144-2-4.282-3.67-4.994-4.354-1.16-1.143-3.918-3.325-3.944-5.952 0-.353.053-.712.169-1.07.385-1.207 1.491-1.914 2.36-2.303-1.776-.224-7.149.184-8.671 3.36a3.999 3.999 0 0 0-.408 1.77c-.035 3.576 4.504 7.775 6.987 10.496 2.379 2.636 5.261 5.122 6.659 7.803.333.642.629 1.537.597 2.464-.077 2.241-.865 3.052-1.263 3.32 8.602-4.586 6.974-9.019 6.974-9.019-.357-2.055-2.326-4.527-4.466-6.515z" fill="#A6A8AB"/>
        <path d="m82.299 16.54 3.229-9.376h-1.941l-3.233 9.376h1.945zM53.552 16.532l3.227-9.368h-1.942l-3.225 9.368h1.94zM39.44 16.532l3.225-9.368h-1.943L37.5 16.532h1.941zM80.416 7.166l-2.49 7.306h-1.535l.267-.787c.308-.899-.106-1.628-.922-1.628H70.33c-.334 0-.68.12-.997.328l1.776-5.22H69.17l-2.49 7.307h-1.272l.86-2.516h-1.945l-.854 2.516h-4.765l.591-1.744h-2.226l-1.361 3.996h-1.84c-.157.6-.097 1.104.175 1.513.272.404.809.555 1.372.555.563 0 1.064-.125 1.575-.531.513-.409.745-.938.95-1.537l.064-.192 21.165.006 3.19-9.374h-1.942v.002zM74.409 14.6h-5.837c.137-.408.33-.736.697-.736h4.721c.368 0 .554.328.417.736h.002zM46.1 14.686c-1.06.265-1.754 1.367-1.95 2.037-.157.602-.1 1.105.175 1.514.272.404 1.2.789 1.757.789.558 0 1.889 0 3.019-.765.539-.366 1.05-.938 1.252-1.537l.066-.192.704-2.062.593-1.743h-2.23l-1.296 3.805h-2.712l.627-1.848-.004.002zM39.54 7.164h-1.942l-2.517 7.306h-4.588l.08-.237c.124-.365.492-.66.823-.66h2.309l.711-2.072c-.39 0-.413.232-.822.232h-3.428c-.41 0-.963.367-1.117.814l-.655 1.923h-2.392c0-.964-.634-1.652-1.663-1.652s-2.157.688-2.842 1.652h-2.735l2.513-7.306h-1.939l-3.227 9.368h4.776c.112.81.72 1.365 1.644 1.365.924 0 1.93-.555 2.62-1.365h11.165l3.224-9.368h.002zm-15.438 8.15c-.144.396-.563.717-.938.717-.376 0-.567-.321-.423-.716.14-.4.558-.722.935-.722.378 0 .57.323.428.722h-.002zM14.553 12.678l-.652 1.809-3.27.003 1.226-3.537c-.184.043-.757.781-1.571.781H6.854c-.406 0-.96.368-1.113.815l-.062.181-.342 1-.488 1.44-.466 1.366H1.67l.63-1.848c-1.066.265-1.758 1.367-1.954 2.036-.155.603-.1 1.106.175 1.514.274.405 1.2.79 1.757.79.558 0 1.887 0 3.017-.765.539-.366 1.051-.938 1.254-1.537l.064-.192.702-2.062.23-.68h1.382l-.933 2.742 6.5-.063a.76.76 0 0 0 .426-.146.753.753 0 0 0 .293-.374l1.111-3.271h-1.77v-.002zM14.922 10.95c-.071.558.276 1.007.78 1.007.503 0 .972-.45 1.043-1.007.077-.553-.27-1.005-.777-1.005s-.97.45-1.046 1.005zM2.581 20.295c-.068.498.244.9.693.9.448 0 .861-.402.93-.9.067-.494-.243-.897-.692-.897-.449 0-.865.403-.931.897zM.454 20.295c-.068.498.244.9.693.9.448 0 .865-.402.933-.9.064-.494-.244-.897-.695-.897-.45 0-.865.403-.931.897z" fill="#B39759"/>
        <path d="M62.503 18.28c-.066.494.242.895.693.895.45 0 .867-.401.93-.895.066-.494-.241-.897-.692-.897-.45 0-.865.403-.931.897zM60.374 18.28c-.066.494.246.895.693.895.447 0 .863-.401.935-.895.062-.494-.246-.897-.695-.897-.449 0-.867.403-.933.897zM46.688 12.388c-.073.554.274 1.005.781 1.005s.971-.451 1.044-1.005c.075-.556-.272-1.005-.775-1.005s-.974.45-1.048 1.005h-.002zM30.345 8.984c-.507 0-.975.45-1.048 1.005a1.18 1.18 0 0 0-.008.23c0 .168-1.036.225-1.036.225l-.259.817s1.286-.132 2.16-.27a.72.72 0 0 0 .112-.017h.003c.425-.099.789-.502.849-.985.075-.555-.272-1.005-.773-1.005zm.142 1.017c-.022.192-.184.345-.358.345-.175 0-.291-.153-.265-.345.024-.189.186-.343.358-.343.173 0 .291.152.263.343h.002z" fill="#B39759"/>
        <path d="m.19 29.26.76-2.402c.824-2.616 3.112-3.116 6.11-3.116s4.973.5 4.147 3.116l-.76 2.402c-.826 2.616-3.11 3.114-6.113 3.114-3.001 0-4.969-.5-4.143-3.114H.19zm7.29-.25.607-1.913c.398-1.257-.109-1.382-1.646-1.382-1.538 0-2.08.125-2.523 1.382L3.31 29.01c-.353 1.268.107 1.393 1.647 1.393s2.125-.125 2.525-1.393H7.48zM13.83 32.31h-2.957l2.685-8.498h4.685l.428 5.337h.105l3.695-5.337h4.804l-2.684 8.498h-2.955l2.354-6.517h-.103l-4.868 6.517h-2.557l-.781-6.517h-.085l-1.762 6.517h-.004zM29.547 30.846l-1.009 1.464h-3.073l6.01-8.498h4.49l.687 8.498h-3.017l-.112-1.464h-3.978.002zm3.696-5.335h-.028l-2.508 3.683h2.75l-.212-3.683h-.002zM40.383 32.31h-2.957l2.682-8.498h4.998l1.115 6.527h.118l1.885-6.526h2.957l-2.683 8.497h-5.04l-1.072-6.528h-.119l-1.883 6.528h-.002zM58.173 30.846l-1.01 1.464h-3.075l6.011-8.498h4.493l.687 8.498h-3.015l-.116-1.464h-3.975zm3.697-5.335h-.03l-2.508 3.683h2.75l-.212-3.683zM68.974 32.31h-2.957l2.685-8.498h2.954l-2.682 8.498zM73.415 23.813h5.706c2.545.033 3.668.45 3 2.57-.445 1.418-.71 2.244-2.925 2.619l-.03.091c1.201.034 1.824.543 1.518 1.507l-.538 1.712h-2.957l.377-1.192c.23-.634.01-1.065-.877-1.065H74.4l-.715 2.257h-2.957l2.685-8.498.003-.002zm3.898 4.27c1.27 0 1.344-.364 1.644-1.326.239-.76.056-.974-.918-.974h-2.29l-.727 2.3h2.29z" fill="#A6A8AB"/>
    </g>
    <defs>
        <clipPath id="wwdnxcbxqa">
            <path fill="#fff" transform="translate(0 .5)" d="M0 0h128v32H0z"/>
        </clipPath>
    </defs>
</svg>
