<svg xmlns="http://www.w3.org/2000/svg" viewBox="0 0 818 192"><defs><style>.cls-1{fill:#38418c;}.cls-2{fill:#bcbcbc;}</style></defs><g id="Layer_1" data-name="Layer 1"><g id="airblue"><path id="blue" class="cls-1" d="M313.55,20h42.88v53.6C369.18,60.1,382,59.32,388.58,59.32c18.22,0,46.92,9.59,46.92,57.77,0,40.29-20.57,60.13-46.92,60.13-7.52,0-26.28-4.92-32.15-17.86v14.29H313.55Zm42.89,95.89q0,13.47,5.19,19.51a16.58,16.58,0,0,0,13.15,6.05c4.9,0,17.33-4.05,17.33-26,0-18.71-12.09-24-16.73-24a17.29,17.29,0,0,0-13.65,6Q356.43,103.61,356.44,115.9ZM460,20h42.88V173.65H460ZM653,173.65H606.54V155.79c-5.6,14.6-18.75,21.43-36.68,21.43q-18,0-28.17-10.58t-10.21-32.59V62.87l46.47,0v60.74c0,12.28,9.52,17.87,14.29,17.87,5.2,0,14.3-5.55,14.3-17.87V62.87H653Zm146.49-46.44H717.3c.76,6.93,3,13.9,5.93,17.3a20.09,20.09,0,0,0,16.11,7.33,23.87,23.87,0,0,0,11.93-3.19,28.15,28.15,0,0,0,7.43-7.12l41.94,3.94q-9.63,17-23.22,24.37t-39,7.38q-22.06,0-34.73-6.31t-21-20.08q-8.31-13.76-8.32-32.34,0-26.44,16.69-42.8t46.08-16.36c15.9,0,24.88,2.44,34.08,7.33a49.19,49.19,0,0,1,21,21.24q7.22,13.92,7.21,36.22Zm-39.3-17.87c-.84-8.3-3.88-14.84-7.5-18.42s-8.39-5.38-14.3-5.38A19.44,19.44,0,0,0,722,93.66c-2.6,3.38-4,9-4.71,15.68Z"/><path id="air" class="cls-2" d="M117,127.41V101.92c0-8.49-.32-14.38-1-17.63a30,30,0,0,0-5.94-13q-4.23-5.15-13.24-8.55t-23.42-3.4a68.53,68.53,0,0,0-24.41,4q-11,4-16.84,11.37T23.85,94.06L42.5,96.61q3.07-12,9.49-16.73t19.87-4.73q14.4,0,21.72,6.48Q99,86.42,99,98.1c0,.7,0,2.37-.1,5q-10.92,3.82-34,6.58a137.7,137.7,0,0,0-17,2.87,46.76,46.76,0,0,0-13.73,6.26,31.29,31.29,0,0,0-9.85,11,30.9,30.9,0,0,0-3.76,15.14q0,14.12,10,23.2c6.64,6.06,15,9.08,27.37,9.08,15,0,28.2-4.87,41.43-16.46.64,5.3,1.44,8.93,3.42,12.89h21.43c-2.4-4.32-5.12-7.81-5.93-12.52S117,145.19,117,127.41Zm-18.15-2.34q0,12.65-3.07,19.12A29.8,29.8,0,0,1,83.2,157.42a39.32,39.32,0,0,1-19.61,4.83q-11.13,0-16.9-5.1a16.92,16.92,0,0,1-3.13-21.83,16.69,16.69,0,0,1,7.53-6.21Q56,127,67.72,125.29q20.77-3,31.16-7.23Zm64.58,48.62h17.88V62.88H163.46Zm0-132.26h17.88V23.63H163.46ZM270.67,59.32c-9.84,0-17.08,6.36-21.43,14.29V62.89H231.37l0,110.8,17.9,0V116.48c0-16.62,2.77-39.3,21.43-39.3,7.13,0,13.44,7.31,13.44,7.31l8-18S282.56,59.32,270.67,59.32Z"/><path class="cls-1" d="M782.8,36.18a7.81,7.81,0,0,0,5.13,2.22c2.19,0,3.42-1,3.42-2.52s-1.26-2.13-3.06-2.88l-2.67-1.17c-2-.81-4-2.34-4-5.22,0-3.12,2.76-5.52,6.57-5.52a8.68,8.68,0,0,1,6.06,2.49l-1.8,2.22a6.34,6.34,0,0,0-4.26-1.68c-1.86,0-3.06.87-3.06,2.31s1.5,2.1,3.12,2.76l2.64,1.11c2.34,1,4,2.46,4,5.31,0,3.18-2.64,5.82-7,5.82a10.09,10.09,0,0,1-7.05-2.88Zm15.4-14.73H802l3.54,9.66,1.29,3.72H807l1.29-3.72,3.45-9.66h3.84V41.07h-3.27v-9c0-1.83.27-4.44.45-6.24h-.12L811,30.33l-3.39,8.91H806l-3.39-8.91-1.56-4.47H801c.15,1.8.42,4.41.42,6.24v9H798.2Z"/></g></g></svg>