<svg xmlns="http://www.w3.org/2000/svg" width="18.667" height="18.667" viewBox="0 0 18.667 18.667">
  <g id="Icon_feather-instagram" data-name="Icon feather-instagram" transform="translate(-1.5 -1.5)">
    <path id="Path_80" data-name="Path 80" d="M6.917,3H14.75a3.917,3.917,0,0,1,3.917,3.917V14.75a3.917,3.917,0,0,1-3.917,3.917H6.917A3.917,3.917,0,0,1,3,14.75V6.917A3.917,3.917,0,0,1,6.917,3Z" fill="none" stroke="#000" stroke-linecap="round" stroke-linejoin="round" stroke-width="3"/>
    <path id="Path_81" data-name="Path 81" d="M18.3,14.609a3.133,3.133,0,1,1-2.64-2.64,3.133,3.133,0,0,1,2.64,2.64Z" transform="translate(-4.331 -4.269)" fill="none" stroke="#000" stroke-linecap="round" stroke-linejoin="round" stroke-width="3"/>
    <path id="Path_82" data-name="Path 82" d="M26.25,9.75h0" transform="translate(-11.108 -3.225)" fill="none" stroke="#000" stroke-linecap="round" stroke-linejoin="round" stroke-width="3"/>
  </g>
</svg>
