<svg xmlns="http://www.w3.org/2000/svg" width="19.124" height="13.447" viewBox="0 0 19.124 13.447">
  <path id="Icon_awesome-youtube" data-name="Icon awesome-youtube" d="M19.774,6.6a2.4,2.4,0,0,0-1.691-1.7c-1.491-.4-7.472-.4-7.472-.4s-5.98,0-7.472.4A2.4,2.4,0,0,0,1.45,6.6a25.208,25.208,0,0,0-.4,4.633,25.208,25.208,0,0,0,.4,4.633A2.367,2.367,0,0,0,3.14,17.544c1.491.4,7.472.4,7.472.4s5.98,0,7.472-.4a2.367,2.367,0,0,0,1.691-1.675,25.208,25.208,0,0,0,.4-4.633,25.208,25.208,0,0,0-.4-4.633ZM8.656,14.08V8.393l5,2.844-5,2.843Z" transform="translate(-1.05 -4.5)"/>
</svg>
